HIERARCHY
ROOT Hips
{
	OFFSET -351.999878 -572.954773 89.312325
	CHANNELS 6 Xposition Yposition Zposition Zrotation Yrotation Xrotation
	JOINT Spine
	{
		OFFSET 0.000000 2.080078 8.814247
		CHANNELS 6 Xposition Yposition Zposition Zrotation Yrotation Xrotation
		JOINT Spine1
		{
			OFFSET 0.000000 0.000000 8.844139
			CHANNELS 6 Xposition Yposition Zposition Zrotation Yrotation Xrotation
			JOINT Spine2
			{
				OFFSET 0.000000 0.000000 11.682266
				CHANNELS 6 Xposition Yposition Zposition Zrotation Yrotation Xrotation
				JOINT Spine3
				{
					OFFSET 0.000000 0.000000 11.746696
					CHANNELS 6 Xposition Yposition Zposition Zrotation Yrotation Xrotation
					JOINT Neck
					{
						OFFSET 0.000000 0.000000 17.658264
						CHANNELS 6 Xposition Yposition Zposition Zrotation Yrotation Xrotation
						JOINT Neck1
						{
							OFFSET 0.000000 0.000000 5.101517
							CHANNELS 6 Xposition Yposition Zposition Zrotation Yrotation Xrotation
							JOINT Head
							{
								OFFSET 0.000000 0.000000 5.101517
								CHANNELS 6 Xposition Yposition Zposition Zrotation Yrotation Xrotation
								JOINT HeadEnd
								{
									OFFSET 0.000000 0.000000 11.655090
									CHANNELS 6 Xposition Yposition Zposition Zrotation Yrotation Xrotation
									End Site
									{
										OFFSET 0.000000 0.000000 0.100006
									}
								}
							}
						}
					}
					JOINT RightShoulder
					{
						OFFSET -2.625397 0.000000 11.175217
						CHANNELS 6 Xposition Yposition Zposition Zrotation Yrotation Xrotation
						JOINT RightArm
						{
							OFFSET 0.000000 0.000000 10.434708
							CHANNELS 6 Xposition Yposition Zposition Zrotation Yrotation Xrotation
							JOINT RightForeArm
							{
								OFFSET 0.000000 0.000000 29.628418
								CHANNELS 6 Xposition Yposition Zposition Zrotation Yrotation Xrotation
								JOINT RightHand
								{
									OFFSET 0.000000 0.000000 22.857605
									CHANNELS 6 Xposition Yposition Zposition Zrotation Yrotation Xrotation
									JOINT RightHandThumb1
									{
										OFFSET -2.867310 -2.944275 3.959564
										CHANNELS 6 Xposition Yposition Zposition Zrotation Yrotation Xrotation
										JOINT RightHandThumb2
										{
											OFFSET 0.000000 0.000000 3.350403
											CHANNELS 6 Xposition Yposition Zposition Zrotation Yrotation Xrotation
											JOINT RightHandThumb3
											{
												OFFSET 0.000000 0.000000 3.756516
												CHANNELS 6 Xposition Yposition Zposition Zrotation Yrotation Xrotation
												JOINT RightHandThumb4
												{
													OFFSET 0.000000 0.000000 3.147339
													CHANNELS 6 Xposition Yposition Zposition Zrotation Yrotation Xrotation
													End Site
													{
														OFFSET 0.000000 0.000000 0.100006
													}
												}
											}
										}
									}
									JOINT RightHandIndex1
									{
										OFFSET -0.086761 -2.345276 10.030899
										CHANNELS 6 Xposition Yposition Zposition Zrotation Yrotation Xrotation
										JOINT RightHandIndex2
										{
											OFFSET 0.000000 0.000000 4.061096
											CHANNELS 6 Xposition Yposition Zposition Zrotation Yrotation Xrotation
											JOINT RightHandIndex3
											{
												OFFSET 0.000000 0.000000 3.248871
												CHANNELS 6 Xposition Yposition Zposition Zrotation Yrotation Xrotation
												JOINT RightHandIndex4
												{
													OFFSET 0.000000 0.000000 2.639709
													CHANNELS 6 Xposition Yposition Zposition Zrotation Yrotation Xrotation
													End Site
													{
														OFFSET 0.000000 0.000000 0.100006
													}
												}
											}
										}
									}
									JOINT RightHandMiddle1
									{
										OFFSET 0.104095 -0.006775 9.502945
										CHANNELS 6 Xposition Yposition Zposition Zrotation Yrotation Xrotation
										JOINT RightHandMiddle2
										{
											OFFSET 0.000000 0.000000 4.568726
											CHANNELS 6 Xposition Yposition Zposition Zrotation Yrotation Xrotation
											JOINT RightHandMiddle3
											{
												OFFSET 0.000000 0.000000 3.654984
												CHANNELS 6 Xposition Yposition Zposition Zrotation Yrotation Xrotation
												JOINT RightHandMiddle4
												{
													OFFSET 0.000000 0.000000 2.741241
													CHANNELS 6 Xposition Yposition Zposition Zrotation Yrotation Xrotation
													End Site
													{
														OFFSET 0.000000 0.000000 0.100006
													}
												}
											}
										}
									}
									JOINT RightHandRing1
									{
										OFFSET 0.086761 2.267456 8.921707
										CHANNELS 6 Xposition Yposition Zposition Zrotation Yrotation Xrotation
										JOINT RightHandRing2
										{
											OFFSET 0.000000 0.000000 4.061096
											CHANNELS 6 Xposition Yposition Zposition Zrotation Yrotation Xrotation
											JOINT RightHandRing3
											{
												OFFSET 0.000000 0.000000 3.654984
												CHANNELS 6 Xposition Yposition Zposition Zrotation Yrotation Xrotation
												JOINT RightHandRing4
												{
													OFFSET 0.000000 0.000000 2.741241
													CHANNELS 6 Xposition Yposition Zposition Zrotation Yrotation Xrotation
													End Site
													{
														OFFSET 0.000000 0.000000 0.100006
													}
												}
											}
										}
									}
									JOINT RightHandPinky1
									{
										OFFSET -0.173492 4.467224 7.976990
										CHANNELS 6 Xposition Yposition Zposition Zrotation Yrotation Xrotation
										JOINT RightHandPinky2
										{
											OFFSET 0.000000 0.000000 3.350403
											CHANNELS 6 Xposition Yposition Zposition Zrotation Yrotation Xrotation
											JOINT RightHandPinky3
											{
												OFFSET 0.000000 0.000000 2.842758
												CHANNELS 6 Xposition Yposition Zposition Zrotation Yrotation Xrotation
												JOINT RightHandPinky4
												{
													OFFSET 0.000000 0.000000 2.639709
													CHANNELS 6 Xposition Yposition Zposition Zrotation Yrotation Xrotation
													End Site
													{
														OFFSET 0.000000 0.000000 0.100006
													}
												}
											}
										}
									}
									JOINT RightForeArmEnd
									{
										OFFSET 0.000000 0.000000 0.000000
										CHANNELS 6 Xposition Yposition Zposition Zrotation Yrotation Xrotation
										End Site
										{
											OFFSET 0.000000 0.000000 0.100006
										}
									}
								}
								JOINT RightArmEnd
								{
									OFFSET 0.000000 0.000000 0.000000
									CHANNELS 6 Xposition Yposition Zposition Zrotation Yrotation Xrotation
									End Site
									{
										OFFSET 0.000000 0.000000 0.100006
									}
								}
							}
						}
					}
					JOINT LeftShoulder
					{
						OFFSET 2.625397 0.000000 11.175217
						CHANNELS 6 Xposition Yposition Zposition Zrotation Yrotation Xrotation
						JOINT LeftArm
						{
							OFFSET 0.000000 0.000000 10.813629
							CHANNELS 6 Xposition Yposition Zposition Zrotation Yrotation Xrotation
							JOINT LeftForeArm
							{
								OFFSET 0.000000 0.000000 28.724777
								CHANNELS 6 Xposition Yposition Zposition Zrotation Yrotation Xrotation
								JOINT LeftHand
								{
									OFFSET 0.644379 0.328857 25.716171
									CHANNELS 6 Xposition Yposition Zposition Zrotation Yrotation Xrotation
									JOINT LeftHandThumb1
									{
										OFFSET 2.867310 -2.944275 3.959564
										CHANNELS 6 Xposition Yposition Zposition Zrotation Yrotation Xrotation
										JOINT LeftHandThumb2
										{
											OFFSET 0.000000 0.000000 3.350403
											CHANNELS 6 Xposition Yposition Zposition Zrotation Yrotation Xrotation
											JOINT LeftHandThumb3
											{
												OFFSET 0.000000 0.000000 3.756516
												CHANNELS 6 Xposition Yposition Zposition Zrotation Yrotation Xrotation
												JOINT LeftHandThumb4
												{
													OFFSET 0.000000 0.000000 3.100006
													CHANNELS 6 Xposition Yposition Zposition Zrotation Yrotation Xrotation
													End Site
													{
														OFFSET 0.000000 0.000000 0.100006
													}
												}
											}
										}
									}
									JOINT LeftHandIndex1
									{
										OFFSET 0.086761 -2.345276 10.030899
										CHANNELS 6 Xposition Yposition Zposition Zrotation Yrotation Xrotation
										JOINT LeftHandIndex2
										{
											OFFSET 0.000000 0.000000 4.061096
											CHANNELS 6 Xposition Yposition Zposition Zrotation Yrotation Xrotation
											JOINT LeftHandIndex3
											{
												OFFSET 0.000000 0.000000 3.248871
												CHANNELS 6 Xposition Yposition Zposition Zrotation Yrotation Xrotation
												JOINT LeftHandIndex4
												{
													OFFSET 0.000000 0.000000 2.639709
													CHANNELS 6 Xposition Yposition Zposition Zrotation Yrotation Xrotation
													End Site
													{
														OFFSET 0.000000 0.000000 0.100006
													}
												}
											}
										}
									}
									JOINT LeftHandMiddle1
									{
										OFFSET -0.104095 -0.006775 9.502945
										CHANNELS 6 Xposition Yposition Zposition Zrotation Yrotation Xrotation
										JOINT LeftHandMiddle2
										{
											OFFSET 0.000000 0.000000 4.568726
											CHANNELS 6 Xposition Yposition Zposition Zrotation Yrotation Xrotation
											JOINT LeftHandMiddle3
											{
												OFFSET 0.000000 0.000000 3.654984
												CHANNELS 6 Xposition Yposition Zposition Zrotation Yrotation Xrotation
												JOINT LeftHandMiddle4
												{
													OFFSET 0.000000 0.000000 2.741241
													CHANNELS 6 Xposition Yposition Zposition Zrotation Yrotation Xrotation
													End Site
													{
														OFFSET 0.000000 0.000000 0.100006
													}
												}
											}
										}
									}
									JOINT LeftHandRing1
									{
										OFFSET -0.086761 2.267456 8.921707
										CHANNELS 6 Xposition Yposition Zposition Zrotation Yrotation Xrotation
										JOINT LeftHandRing2
										{
											OFFSET 0.000000 0.000000 4.061096
											CHANNELS 6 Xposition Yposition Zposition Zrotation Yrotation Xrotation
											JOINT LeftHandRing3
											{
												OFFSET 0.000000 0.000000 3.654984
												CHANNELS 6 Xposition Yposition Zposition Zrotation Yrotation Xrotation
												JOINT LeftHandRing4
												{
													OFFSET 0.000000 0.000000 2.741241
													CHANNELS 6 Xposition Yposition Zposition Zrotation Yrotation Xrotation
													End Site
													{
														OFFSET 0.000000 0.000000 0.100006
													}
												}
											}
										}
									}
									JOINT LeftHandPinky1
									{
										OFFSET 0.173492 4.467224 7.976990
										CHANNELS 6 Xposition Yposition Zposition Zrotation Yrotation Xrotation
										JOINT LeftHandPinky2
										{
											OFFSET 0.000000 0.000000 3.350403
											CHANNELS 6 Xposition Yposition Zposition Zrotation Yrotation Xrotation
											JOINT LeftHandPinky3
											{
												OFFSET 0.000000 0.000000 2.842758
												CHANNELS 6 Xposition Yposition Zposition Zrotation Yrotation Xrotation
												JOINT LeftHandPinky4
												{
													OFFSET 0.000000 0.000000 2.639709
													CHANNELS 6 Xposition Yposition Zposition Zrotation Yrotation Xrotation
													End Site
													{
														OFFSET 0.000000 0.000000 0.100006
													}
												}
											}
										}
									}
									JOINT LeftForeArmEnd
									{
										OFFSET 0.000000 0.000000 0.000000
										CHANNELS 6 Xposition Yposition Zposition Zrotation Yrotation Xrotation
										End Site
										{
											OFFSET 0.000000 0.000000 0.100006
										}
									}
								}
								JOINT LeftArmEnd
								{
									OFFSET 0.000000 0.000000 0.000000
									CHANNELS 6 Xposition Yposition Zposition Zrotation Yrotation Xrotation
									End Site
									{
										OFFSET 0.000000 0.000000 0.100006
									}
								}
							}
						}
					}
				}
			}
		}
	}
	JOINT RightUpLeg
	{
		OFFSET -11.289948 0.000000 0.000000
		CHANNELS 6 Xposition Yposition Zposition Zrotation Yrotation Xrotation
		JOINT RightLeg
		{
			OFFSET 0.000000 0.000000 -38.200329
			CHANNELS 6 Xposition Yposition Zposition Zrotation Yrotation Xrotation
			JOINT RightFoot
			{
				OFFSET 0.000000 0.000000 -39.900856
				CHANNELS 6 Xposition Yposition Zposition Zrotation Yrotation Xrotation
				JOINT RightToeBase
				{
					OFFSET 0.000000 -15.261658 0.000002
					CHANNELS 6 Xposition Yposition Zposition Zrotation Yrotation Xrotation
					JOINT RightToeBaseEnd
					{
						OFFSET 0.000000 -7.370728 0.000000
						CHANNELS 6 Xposition Yposition Zposition Zrotation Yrotation Xrotation
						End Site
						{
							OFFSET 0.000000 0.000000 0.100000
						}
					}
				}
				JOINT RightLegEnd
				{
					OFFSET 0.000000 0.000000 0.000000
					CHANNELS 6 Xposition Yposition Zposition Zrotation Yrotation Xrotation
					End Site
					{
						OFFSET 0.000000 0.000000 0.100000
					}
				}
			}
			JOINT RightUpLegEnd
			{
				OFFSET 0.000000 0.000000 0.000000
				CHANNELS 6 Xposition Yposition Zposition Zrotation Yrotation Xrotation
				End Site
				{
					OFFSET 0.000000 0.000000 0.099998
				}
			}
		}
	}
	JOINT LeftUpLeg
	{
		OFFSET 11.315674 0.000000 0.000000
		CHANNELS 6 Xposition Yposition Zposition Zrotation Yrotation Xrotation
		JOINT LeftLeg
		{
			OFFSET 0.000000 0.000000 -38.200329
			CHANNELS 6 Xposition Yposition Zposition Zrotation Yrotation Xrotation
			JOINT LeftFoot
			{
				OFFSET 0.000000 0.000000 -39.900856
				CHANNELS 6 Xposition Yposition Zposition Zrotation Yrotation Xrotation
				JOINT LeftToeBase
				{
					OFFSET 0.000000 -15.261658 0.000002
					CHANNELS 6 Xposition Yposition Zposition Zrotation Yrotation Xrotation
					JOINT LeftToeBaseEnd
					{
						OFFSET 0.000000 -7.539978 0.000000
						CHANNELS 6 Xposition Yposition Zposition Zrotation Yrotation Xrotation
						End Site
						{
							OFFSET 0.000000 0.000000 0.100000
						}
					}
				}
				JOINT LeftLegEnd
				{
					OFFSET 0.000000 0.000000 0.000000
					CHANNELS 6 Xposition Yposition Zposition Zrotation Yrotation Xrotation
					End Site
					{
						OFFSET 0.000000 0.000000 0.100000
					}
				}
			}
			JOINT LeftUpLegEnd
			{
				OFFSET 0.000000 0.000000 0.000000
				CHANNELS 6 Xposition Yposition Zposition Zrotation Yrotation Xrotation
				End Site
				{
					OFFSET 0.000000 0.000000 0.099998
				}
			}
		}
	}
}
MOTION
Frames: 2
Frame Time: 0.016667
-35.579895 -10.828308 74.491928 38.282234 10.094314 -17.826278 0.000011 2.080057 8.814262 -1.334351 -5.878588 12.020030 -0.000011 0.000028 8.844154 -0.427026 -1.238348 6.043498 0.000009 0.000007 11.682274 -0.819790 -0.913582 9.853728 0.000000 0.000021 11.746687 0.419891 -1.105999 6.236012 0.000015 0.000016 17.658270 -8.443172 -13.788157 -0.582694 -0.000003 0.000000 5.101521 -2.713704 -0.466698 -8.160807 -0.000006 -0.000021 5.101534 -0.794189 -0.413294 -18.125585 0.000002 0.000012 11.655080 -0.000002 -0.000001 0.000000 -2.625380 -0.000007 11.175215 13.244290 -90.039891 2.092052 0.000000 0.000000 10.434738 5.104891 -65.348764 13.152602 0.000000 -0.000015 29.628454 22.617879 -0.201378 84.361272 -0.000061 0.000069 22.857620 13.980037 37.687891 21.138536 -2.867315 -2.944260 3.959564 32.486944 -26.399998 38.690467 -0.000023 -0.000031 3.350410 -32.871143 10.485886 -55.441513 0.000000 0.000000 3.756561 -21.867167 10.798147 -37.859001 0.000002 0.000001 3.147331 -0.000000 -0.000001 0.000003 -0.086781 -2.345246 10.030930 -90.604508 -71.505448 87.938078 0.000000 0.000042 4.061089 -8.623691 -61.791779 15.189793 0.000000 0.000006 3.248863 -9.123739 -61.791772 15.189801 0.000001 -0.000003 2.639731 0.000000 -0.000002 -0.000000 0.104090 -0.006793 9.502960 -81.095813 -76.335697 83.136093 -0.000004 0.000010 4.568731 -2.790435 -61.467522 5.533534 0.000000 0.000009 3.655031 -3.290310 -61.467516 5.533219 -0.000005 0.000006 2.741218 -0.000001 -0.000001 -0.000006 0.086769 2.267464 8.921745 -125.785337 -83.179895 134.041520 -0.000006 0.000010 4.061106 3.832297 -65.085016 -7.566275 0.000017 0.000029 3.654991 4.832318 -65.084989 -7.566282 0.000008 -0.000008 2.741235 -0.000000 0.000000 -0.000001 -0.173489 4.467262 7.977013 159.007910 -82.757707 -144.443980 0.000015 0.000011 3.350403 12.006010 -63.167044 -22.597710 0.000019 -0.000031 2.842781 14.005977 -63.167031 -22.597635 -0.000009 -0.000001 2.639722 -0.000002 0.000001 -0.000002 -0.000001 0.000010 -0.000002 0.000000 -0.000000 0.000003 -0.000036 0.000001 -0.000003 -0.000000 -0.000001 -0.000000 2.625398 0.000022 11.175209 -10.410471 87.382715 -0.112537 -0.000046 -0.000009 10.813610 1.002945 72.426390 9.731910 -0.000076 -0.000008 28.724789 -19.803879 1.168521 78.381229 0.644348 0.328922 25.716148 7.478575 -47.914381 8.856011 2.867242 -2.944275 3.959534 -33.448130 29.128243 35.046373 -0.000008 0.000000 3.350437 38.531037 -8.984235 -64.663709 -0.000046 -0.000031 3.756516 25.945160 -11.070373 -44.369175 -0.000024 0.000000 3.100023 -0.000000 0.000003 0.000002 0.086754 -2.345222 10.030937 -186.568420 77.569898 -199.191252 0.000031 0.000027 4.061119 -16.958484 71.109216 -24.248852 0.000008 0.000008 3.248886 -17.458271 71.108983 -24.248611 -0.000041 -0.000009 2.639713 0.000003 -0.000000 -0.000002 -0.104073 -0.006706 9.502953 -29.049577 103.085088 -34.692126 0.000051 -0.000086 4.568758 -5.731655 70.959778 -8.736270 0.000000 -0.000048 3.655012 -6.231758 70.959764 -8.736302 -0.000033 0.000004 2.741245 -0.000000 0.000000 -0.000003 -0.086735 2.267524 8.921730 -38.922437 112.679816 -36.705553 0.000004 -0.000018 4.061169 9.162518 75.021466 13.215419 -0.000013 0.000011 3.655010 10.162562 75.021466 13.219047 -0.000029 -0.000001 2.741249 -0.000001 0.000001 -0.000000 0.173515 4.467197 7.976967 -53.159151 118.351305 -42.289519 0.000000 -0.000004 3.350449 26.823196 72.665918 38.519258 -0.000023 0.000004 2.842815 28.823241 72.665932 38.519286 -0.000030 -0.000003 2.639705 0.000000 0.000000 0.000001 -0.000023 0.000085 -0.000023 -0.000004 0.000001 0.000000 0.000005 0.000013 -0.000007 -0.000002 -0.000001 -0.000000 -11.289871 0.000010 -0.000015 -27.502831 16.049782 7.786296 0.000037 0.000038 -38.200321 -0.956213 1.248485 52.547832 0.000007 -0.000052 -39.900856 -15.255410 -22.236330 -4.517528 0.000026 -15.261719 0.000046 4.168539 0.023935 -15.502839 -0.000008 -7.370667 0.000000 -0.000000 0.000000 0.000001 0.000013 0.000020 0.000002 -0.000003 -0.000000 0.000000 0.000028 0.000067 -0.000004 -0.000001 -0.000000 -0.000001 11.315655 -0.000019 -0.000015 -14.231150 -28.813956 -25.051604 -0.000011 0.000048 -38.200253 1.156446 -1.257426 47.388856 0.000000 0.000021 -39.900856 -1.898504 15.364400 15.528268 0.000033 -15.261664 0.000017 -1.292915 -1.450133 -19.677322 0.000003 -7.539972 0.000001 -0.000001 0.000001 -0.000001 0.000001 -0.000016 -0.000001 0.000003 -0.000001 0.000001 -0.000019 0.000054 0.000001 0.000001 -0.000002 -0.000000 
-33.940979 -10.975647 74.546417 37.746972 10.456897 -17.305606 -0.000000 2.080098 8.814259 -1.340289 -5.865947 11.728759 0.000005 -0.000022 8.844149 -0.461059 -1.414074 5.826285 0.000005 0.000012 11.682284 -0.528548 -1.085417 9.863200 -0.000014 -0.000018 11.746691 0.615834 -1.235522 5.892709 0.000004 0.000007 17.658260 -8.608793 -13.945283 -1.133492 -0.000001 -0.000013 5.101492 -2.844101 -0.562975 -8.529044 -0.000013 -0.000012 5.101560 -0.735256 -0.443699 -17.994499 -0.000039 -0.000021 11.655075 0.000003 0.000000 0.000000 -2.625377 0.000019 11.175194 15.271024 -90.417921 0.147366 0.000015 0.000017 10.434681 5.178725 -65.624430 13.323325 -0.000002 0.000027 29.628410 22.795644 -0.149405 84.139823 -0.000035 0.000069 22.857620 14.246029 37.702986 20.763843 -2.867326 -2.944260 3.959534 32.486873 -26.400044 38.690583 0.000008 -0.000031 3.350395 -32.871187 10.485723 -55.441769 -0.000015 -0.000015 3.756523 -21.866958 10.798282 -37.858861 0.000003 -0.000012 3.147348 0.000000 -0.000001 0.000001 -0.086760 -2.345271 10.030919 -90.686252 -71.505599 88.052237 -0.000008 -0.000008 4.061096 -8.635631 -61.812529 15.203323 -0.000015 0.000015 3.248886 -9.135651 -61.812556 15.203354 -0.000006 -0.000002 2.639709 -0.000000 -0.000001 -0.000002 0.104074 -0.006780 9.502947 -81.956519 -76.367710 83.972531 -0.000023 0.000021 4.568714 -2.819504 -61.610273 5.564567 0.000041 0.000018 3.655001 -3.319558 -61.610267 5.564599 -0.000011 -0.000004 2.741238 -0.000000 -0.000002 0.000001 0.086773 2.267454 8.921740 -130.020861 -82.784024 138.236554 0.000023 0.000018 4.061081 3.977016 -65.535126 -7.725541 -0.000002 0.000017 3.654993 4.976952 -65.535119 -7.725482 0.000005 -0.000004 2.741230 0.000003 0.000000 0.000003 -0.173504 4.467226 7.977018 161.406960 -81.803079 -146.952435 0.000000 0.000015 3.350388 12.612947 -63.807293 -23.275939 -0.000011 0.000011 2.842781 14.612937 -63.807299 -23.275931 -0.000041 0.000009 2.639710 -0.000001 0.000001 -0.000003 -0.000001 0.000002 -0.000014 -0.000000 0.000000 -0.000002 0.000007 0.000005 -0.000013 -0.000001 0.000001 0.000000 2.625374 -0.000025 11.175202 -10.726767 87.727701 -0.135328 -0.000015 -0.000014 10.813647 -4.902092 72.045874 3.868188 -0.000038 0.000023 28.724785 -20.018508 1.097119 78.265444 0.644363 0.328852 25.716156 7.819089 -48.093865 8.446882 2.867322 -2.944351 3.959549 -33.448160 29.128250 35.046370 -0.000031 -0.000015 3.350430 38.531020 -8.984236 -64.663696 -0.000023 -0.000038 3.756538 25.945158 -11.070394 -44.369168 -0.000031 0.000001 3.100016 -0.000002 -0.000002 0.000001 0.086800 -2.345274 10.030956 -186.279845 77.156460 -198.910408 -0.000019 -0.000008 4.061119 -17.327585 71.370293 -24.638632 0.000015 -0.000011 3.248917 -17.827535 71.370245 -24.638627 -0.000037 -0.000008 2.639732 0.000001 -0.000001 0.000000 -0.104080 -0.006807 9.502953 -28.185522 103.427963 -33.823240 0.000055 -0.000027 4.568741 -5.861573 71.231667 -8.871933 0.000021 -0.000059 3.655029 -6.361563 71.231654 -8.871942 -0.000017 -0.000006 2.741254 0.000000 -0.000000 -0.000001 -0.086784 2.267436 8.921768 -38.414838 112.918586 -36.275203 -0.000011 0.000010 4.061119 9.354008 75.229138 13.412982 0.000010 0.000010 3.655048 10.354069 75.229158 13.415567 -0.000021 -0.000008 2.741260 0.000001 -0.000001 -0.000001 0.173523 4.467207 7.976990 -52.614071 118.564311 -42.070560 -0.000008 -0.000019 3.350430 27.213781 72.810459 38.928233 -0.000008 -0.000027 2.842804 29.213853 72.810465 38.928311 -0.000021 -0.000004 2.639702 0.000001 0.000000 -0.000001 -0.000023 0.000012 -0.000005 -0.000001 -0.000001 -0.000000 0.000006 0.000010 0.000003 -0.000002 0.000002 -0.000003 -11.289890 -0.000004 -0.000008 -27.057419 16.600484 8.497578 0.000020 0.000036 -38.200310 -1.122044 1.370326 50.682408 0.000001 -0.000050 -39.900860 -14.768816 -22.559396 -3.286661 -0.000006 -15.261738 0.000022 4.296587 0.281476 -15.376134 0.000006 -7.370660 0.000000 -0.000001 -0.000000 0.000000 -0.000015 0.000066 0.000002 -0.000001 0.000001 0.000000 0.000024 0.000001 -0.000003 0.000000 -0.000001 -0.000001 11.315668 -0.000015 -0.000008 -12.065186 -28.428332 -27.133311 -0.000005 0.000075 -38.200317 1.271769 -1.524071 50.148103 -0.000016 0.000019 -39.900860 -2.983163 13.532697 14.723253 0.000025 -15.261679 0.000027 -1.353264 -1.295548 -20.484214 0.000012 -7.539976 -0.000001 -0.000000 0.000001 -0.000000 0.000002 0.000069 -0.000001 -0.000001 0.000001 -0.000002 -0.000017 0.000057 -0.000013 0.000001 0.000003 -0.000000 
